# xmcd
#
# Track frame offsets:
# 150
# 9674
# 22741
# 38210
# 54089
#
# Disc length: 904 seconds
#
#
# Revision: 0
# Processed by: cddbd v1.5.2PL0 Copyright (c) Steve Scherf et al.
# Submitted via: HACP 1.20
#
DISCID=2b038605
DTITLE=Country Women - Rising Stars of Country Music
DYEAR=1900
DGENRE=
TTITLE0=Pain Pain - Ashley Monroe
TTITLE1=Satisfied - Ashley Monroe
TTITLE2=Bigger than the Troubles - Crystal Shawanda
TTITLE3=Little Wildflower - Catherine Britt
TTITLE4=When do I get to be a Woman - Sarah Johns
EXTD=
EXTT0=
EXTT1=
EXTT2=
EXTT3=
EXTT4=
PLAYORDER=
